<svg xmlns="http://www.w3.org/2000/svg" width="335" height="262" viewBox="0 0 335 262" xmlns:c2pa="http://c2pa.org/manifest"><metadata><c2pa:manifest>AAAWgmp1bWIAAAAeanVtZGMycGEAEQAQgAAAqgA4m3EDYzJwYQAAABZcanVtYgAAAEdqdW1kYzJtYQARABCAAACqADibcQN1cm46YzJwYTo1Mzk4YTlmMC04MTVkLTQ5ODItOGUwZC0yZWIxMTUwMDU0YjEAAAADl2p1bWIAAAApanVtZGMyYXMAEQAQgAAAqgA4m3EDYzJwYS5hc3NlcnRpb25zAAAAALxqdW1iAAAARGp1bWRjYm9yABEAEIAAAKoAOJtxE2MycGEuaW5ncmVkaWVudC52MwAAAAAYYzJzaGy7wFqC3n//PXMdKf8xNboAAABwY2JvcqNpZGM6Zm9ybWF0bWltYWdlL3N2Zyt4bWxqaW5zdGFuY2VJRHgseG1wOmlpZDowN2JmNjdiMi01YWNkLTRmM2QtOGY5Yi03NDMyNzM2NzkzNGZscmVsYXRpb25zaGlwaHBhcmVudE9mAAAB4mp1bWIAAABBanVtZGNib3IAEQAQgAAAqgA4m3ETYzJwYS5hY3Rpb25zLnYyAAAAABhjMnNo/OjRLIC8ES2zCpKQGPHZ9QAAAZljYm9yomdhY3Rpb25zgqJmYWN0aW9ua2MycGEub3BlbmVkanBhcmFtZXRlcnOha2luZ3JlZGllbnRzgaJjdXJseC1zZWxmI2p1bWJmPWMycGEuYXNzZXJ0aW9ucy9jMnBhLmluZ3JlZGllbnQudjNkaGFzaFgg0aJs8MUVFje3MJ/qFJrA1gNVRztNKR8Se/3L9wrp42CkZmFjdGlvbngdY29tLmFudGhyb3BpYy5jbGF1ZGUucHJvdmlkZWRqcGFyYW1ldGVyc6F4H2NvbS5hbnRocm9waWMub3JpZ2luLWNvbmZpZGVuY2VndW5rbm93bmtkZXNjcmlwdGlvbnhmQ2xhdWRlIHByb3ZpZGVkIHRoaXMgZmlsZSBhdCB0aGUgcmVxdWVzdCBvZiBhIHVzZXIgYW5kIG1heSBoYXZlIGNyZWF0ZWQgb3IgbW9kaWZpZWQgdGhlIGZpbGUgY29udGVudHMubXNvZnR3YXJlQWdlbnShZG5hbWVmQ2xhdWRlcmFsbEFjdGlvbnNJbmNsdWRlZPUAAADIanVtYgAAAEBqdW1kY2JvcgARABCAAACqADibcRNjMnBhLmhhc2guZGF0YQAAAAAYYzJzaL6Y8YF/lI5bAhiSES9l9c8AAACAY2JvcqVjYWxnZnNoYTI1NmNwYWRNAAAAAAAAAAAAAAAAAGRoYXNoWCBvBjIrqysbatQARiOtCO9Kb49aj78yKBqJnvH8Rp2eRWRuYW1lbmp1bWJmIG1hbmlmZXN0amV4Y2x1c2lvbnOBomVzdGFydBiWZmxlbmd0aBkeBAAAAj5qdW1iAAAAJ2p1bWRjMmNsABEAEIAAAKoAOJtxA2MycGEuY2xhaW0udjIAAAACD2Nib3KlY2FsZ2ZzaGEyNTZpc2lnbmF0dXJleE1zZWxmI2p1bWJmPS9jMnBhL3VybjpjMnBhOjUzOThhOWYwLTgxNWQtNDk4Mi04ZTBkLTJlYjExNTAwNTRiMS9jMnBhLnNpZ25hdHVyZWppbnN0YW5jZUlEeCx4bXA6aWlkOmI3NzYwNmZmLWRkY2EtNGI2ZC05OWZmLTdlNGE0MGYyODkwYXJjcmVhdGVkX2Fzc2VydGlvbnODomN1cmx4LXNlbGYjanVtYmY9YzJwYS5hc3NlcnRpb25zL2MycGEuaW5ncmVkaWVudC52M2RoYXNoWCDRomzwxRUWN7cwn+oUmsDWA1VHO00pHxJ7/cv3CunjYKJjdXJseCpzZWxmI2p1bWJmPWMycGEuYXNzZXJ0aW9ucy9jMnBhLmFjdGlvbnMudjJkaGFzaFgg8Wpn3yEsNdKlsWM8Ooxcxh8xUw1R6+0OcSOn9w6aDSWiY3VybHgpc2VsZiNqdW1iZj1jMnBhLmFzc2VydGlvbnMvYzJwYS5oYXNoLmRhdGFkaGFzaFgg5yJU/lEyovTBvgAqEH5rJuVzzQK+d4I+4DO3V8SKYFN0Y2xhaW1fZ2VuZXJhdG9yX2luZm+jZG5hbWVvQW50aHJvcGljIEZpbGVzZ3ZlcnNpb25lMS4wLjBrc3BlY1ZlcnNpb25lMi40LjAAABA4anVtYgAAAChqdW1kYzJjcwARABCAAACqADibcQNjMnBhLnNpZ25hdHVyZQAAABAIY2JvctKEWQISogEmGCFZAgowggIGMIIBjaADAgECAhRA5aAK7sI50L64g/oGQgU9Z1UTADAKBggqhkjOPQQDAzBJMRcwFQYDVQQKEw5BbnRocm9waWMsIFBCQzEuMCwGA1UEAxMlQW50aHJvcGljIENvbnRlbnQgQ3JlZGVudGlhbHMgUm9vdCBDQTAeFw0yNjA4MDcxODQzNTZaFw0yODA4MDYxOTQzNTZaMEQxFzAVBgNVBAoTDkFudGhyb3BpYywgUEJDMSkwJwYDVQQDEyBBbnRocm9waWMgQ2xhdWRlIENvbnRlbnQgU2lnbmluZzBZMBMGByqGSM49AgEGCCqGSM49AwEHA0IABJh6CmvLUBgFFNU0vUKlOVtE6djd17L5SuwX0LemFisBM3dkd/3cyjxFA3Qo5S46fX0/ihY0VZ7mfb9KF703t5OjWDBWMA4GA1UdDwEB/wQEAwIHgDAVBgNVHSUEDjAMBgorBgEEAYPoXgIBMAwGA1UdEwEB/wQCMAAwHwYDVR0jBBgwFoAUzlHiBIFOZFsj+OPEz5o+nMHXXMIwCgYIKoZIzj0EAwMDZwAwZAIwMXMdFJ4BetLLVY7ORuE9noqbbAZOZn/aArXyTwFAZfKrPzxF2vPoJNf1+UCdg1XGAjBwX1zd9WGqYkqmL5SFqw1QySjr1zJfpJM9+1rdDwSPLMOPOjKuiXjoU/pUUeG9RwmhY3BhZFkNngAAAAAAAAAAAAAAAAAAAAAAAAAAAAAAAAAAAAAAAAAAAAAAAAAAAAAAAAAAAAAAAAAAAAAAAAAAAAAAAAAAAAAAAAAAAAAAAAAAAAAAAAAAAAAAAAAAAAAAAAAAAAAAAAAAAAAAAAAAAAAAAAAAAAAAAAAAAAAAAAAAAAAAAAAAAAAAAAAAAAAAAAAAAAAAAAAAAAAAAAAAAAAAAAAAAAAAAAAAAAAAAAAAAAAAAAAAAAAAAAAAAAAAAAAAAAAAAAAAAAAAAAAAAAAAAAAAAAAAAAAAAAAAAAAAAAAAAAAAAAAAAAAAAAAAAAAAAAAAAAAAAAAAAAAAAAAAAAAAAAAAAAAAAAAAAAAAAAAAAAAAAAAAAAAAAAAAAAAAAAAAAAAAAAAAAAAAAAAAAAAAAAAAAAAAAAAAAAAAAAAAAAAAAAAAAAAAAAAAAAAAAAAAAAAAAAAAAAAAAAAAAAAAAAAAAAAAAAAAAAAAAAAAAAAAAAAAAAAAAAAAAAAAAAAAAAAAAAAAAAAAAAAAAAAAAAAAAAAAAAAAAAAAAAAAAAAAAAAAAAAAAAAAAAAAAAAAAAAAAAAAAAAAAAAAAAAAAAAAAAAAAAAAAAAAAAAAAAAAAAAAAAAAAAAAAAAAAAAAAAAAAAAAAAAAAAAAAAAAAAAAAAAAAAAAAAAAAAAAAAAAAAAAAAAAAAAAAAAAAAAAAAAAAAAAAAAAAAAAAAAAAAAAAAAAAAAAAAAAAAAAAAAAAAAAAAAAAAAAAAAAAAAAAAAAAAAAAAAAAAAAAAAAAAAAAAAAAAAAAAAAAAAAAAAAAAAAAAAAAAAAAAAAAAAAAAAAAAAAAAAAAAAAAAAAAAAAAAAAAAAAAAAAAAAAAAAAAAAAAAAAAAAAAAAAAAAAAAAAAAAAAAAAAAAAAAAAAAAAAAAAAAAAAAAAAAAAAAAAAAAAAAAAAAAAAAAAAAAAAAAAAAAAAAAAAAAAAAAAAAAAAAAAAAAAAAAAAAAAAAAAAAAAAAAAAAAAAAAAAAAAAAAAAAAAAAAAAAAAAAAAAAAAAAAAAAAAAAAAAAAAAAAAAAAAAAAAAAAAAAAAAAAAAAAAAAAAAAAAAAAAAAAAAAAAAAAAAAAAAAAAAAAAAAAAAAAAAAAAAAAAAAAAAAAAAAAAAAAAAAAAAAAAAAAAAAAAAAAAAAAAAAAAAAAAAAAAAAAAAAAAAAAAAAAAAAAAAAAAAAAAAAAAAAAAAAAAAAAAAAAAAAAAAAAAAAAAAAAAAAAAAAAAAAAAAAAAAAAAAAAAAAAAAAAAAAAAAAAAAAAAAAAAAAAAAAAAAAAAAAAAAAAAAAAAAAAAAAAAAAAAAAAAAAAAAAAAAAAAAAAAAAAAAAAAAAAAAAAAAAAAAAAAAAAAAAAAAAAAAAAAAAAAAAAAAAAAAAAAAAAAAAAAAAAAAAAAAAAAAAAAAAAAAAAAAAAAAAAAAAAAAAAAAAAAAAAAAAAAAAAAAAAAAAAAAAAAAAAAAAAAAAAAAAAAAAAAAAAAAAAAAAAAAAAAAAAAAAAAAAAAAAAAAAAAAAAAAAAAAAAAAAAAAAAAAAAAAAAAAAAAAAAAAAAAAAAAAAAAAAAAAAAAAAAAAAAAAAAAAAAAAAAAAAAAAAAAAAAAAAAAAAAAAAAAAAAAAAAAAAAAAAAAAAAAAAAAAAAAAAAAAAAAAAAAAAAAAAAAAAAAAAAAAAAAAAAAAAAAAAAAAAAAAAAAAAAAAAAAAAAAAAAAAAAAAAAAAAAAAAAAAAAAAAAAAAAAAAAAAAAAAAAAAAAAAAAAAAAAAAAAAAAAAAAAAAAAAAAAAAAAAAAAAAAAAAAAAAAAAAAAAAAAAAAAAAAAAAAAAAAAAAAAAAAAAAAAAAAAAAAAAAAAAAAAAAAAAAAAAAAAAAAAAAAAAAAAAAAAAAAAAAAAAAAAAAAAAAAAAAAAAAAAAAAAAAAAAAAAAAAAAAAAAAAAAAAAAAAAAAAAAAAAAAAAAAAAAAAAAAAAAAAAAAAAAAAAAAAAAAAAAAAAAAAAAAAAAAAAAAAAAAAAAAAAAAAAAAAAAAAAAAAAAAAAAAAAAAAAAAAAAAAAAAAAAAAAAAAAAAAAAAAAAAAAAAAAAAAAAAAAAAAAAAAAAAAAAAAAAAAAAAAAAAAAAAAAAAAAAAAAAAAAAAAAAAAAAAAAAAAAAAAAAAAAAAAAAAAAAAAAAAAAAAAAAAAAAAAAAAAAAAAAAAAAAAAAAAAAAAAAAAAAAAAAAAAAAAAAAAAAAAAAAAAAAAAAAAAAAAAAAAAAAAAAAAAAAAAAAAAAAAAAAAAAAAAAAAAAAAAAAAAAAAAAAAAAAAAAAAAAAAAAAAAAAAAAAAAAAAAAAAAAAAAAAAAAAAAAAAAAAAAAAAAAAAAAAAAAAAAAAAAAAAAAAAAAAAAAAAAAAAAAAAAAAAAAAAAAAAAAAAAAAAAAAAAAAAAAAAAAAAAAAAAAAAAAAAAAAAAAAAAAAAAAAAAAAAAAAAAAAAAAAAAAAAAAAAAAAAAAAAAAAAAAAAAAAAAAAAAAAAAAAAAAAAAAAAAAAAAAAAAAAAAAAAAAAAAAAAAAAAAAAAAAAAAAAAAAAAAAAAAAAAAAAAAAAAAAAAAAAAAAAAAAAAAAAAAAAAAAAAAAAAAAAAAAAAAAAAAAAAAAAAAAAAAAAAAAAAAAAAAAAAAAAAAAAAAAAAAAAAAAAAAAAAAAAAAAAAAAAAAAAAAAAAAAAAAAAAAAAAAAAAAAAAAAAAAAAAAAAAAAAAAAAAAAAAAAAAAAAAAAAAAAAAAAAAAAAAAAAAAAAAAAAAAAAAAAAAAAAAAAAAAAAAAAAAAAAAAAAAAAAAAAAAAAAAAAAAAAAAAAAAAAAAAAAAAAAAAAAAAAAAAAAAAAAAAAAAAAAAAAAAAAAAAAAAAAAAAAAAAAAAAAAAAAAAAAAAAAAAAAAAAAAAAAAAAAAAAAAAAAAAAAAAAAAAAAAAAAAAAAAAAAAAAAAAAAAAAAAAAAAAAAAAAAAAAAAAAAAAAAAAAAAAAAAAAAAAAAAAAAAAAAAAAAAAAAAAAAAAAAAAAAAAAAAAAAAAAAAAAAAAAAAAAAAAAAAAAAAAAAAAAAAAAAAAAAAAAAAAAAAAAAAAAAAAAAAAAAAAAAAAAAAAAAAAAAAAAAAAAAAAAAAAAAAAAAAAAAAAAAAAAAAAAAAAAAAAAAAAAAAAAAAAAAAAAAAAAAAAAAAAAAAAAAAAAAAAAAAAAAAAAAAAAAAAAAAAAAAAAAAAAAAAAAAAAAAAAAAAAAAAAAAAAAAAAAAAAAAAAAAAAAAAAAAAAAAAAAAAAAAAAAAAAAAAAAAAAAAAAAAAAAAAAAAAAAAAAAAAAAAAAAAAAAAAAAAAAAAAAAAAAAAAAAAAAAAAAAAAAAAAAAAAAAAAAAAAAAAAAAAAAAAAAAAAAAAAAAAAAAAAAAAAAAAAAAAAAAAAAAAAAAAAAAAAAAAAAAAAAAAAAAAAAAAAAAAAAAAAAAAAAAAAAAAAAAAAAAAAAAAAAAAAAAAAAAAAAAAAAAAAAAAAAAAAAAAAAAAAAAAAAAAAAAAAAAAAAAAAAAAAAAAAAAAAAAAAAAAAAAAAAAAAAAAAAAAAAAAAAAAAAAAAAAAAAAAAAAAAAAAAAAAAAAAAAAAAAAAAAAAAAAAAAAAAAAAAAAAAAAAAAAAAAAAAAAAAAAAAAAAAAAAAAAAAAAAAAAAAAAAAAAAAAAAAAAAAAAAAAAAAAAAAAAAAAAAAAAAAAAAAAAAAAAAAAAAAAAAAAAAAAAAAAAAAAAAAAAAAAAAAAAAAAAAAAAAAAAAAAAAAAAAAAAAAAAAAAAAAAAAAAAAAAAAAAAAAAAAAAAAAAAAAAAAAAAAAAAAAAAAAAAAAAAAAAAAAAAAAAAAAAAAAAAAAAAAAAAAAAAAAAAAAAAAAAAAAAAAAAAAAAAAAAAAAAAAAAAAAAAAAAAAAAAAAAAAAAAAAAAAAAAAAAAAAAAAAAAAAAAAAAAAAAAAAAAAAAAAAAAAAAAAAAAAAAAAAAAAAAAAAAAAAAAAAAAAAAAAAAAAAAAAAAAAAAAAAAAAAAAAAAAAAAAAAAAAAAAAAAAAAAAAAAAAAAAAAAAAAAAAAAAAAAAAAAAAAAAAAAAAAAAAAAAAAAAAAAAAAAAAAAAAAAAAAAAAAAAAAAAAAAAAAAAAAAAAAAAAAAAAAAAAAAAAAAAAAAAAAAAAAAAAAAAAAAAAAAAAAAAAAAAAAAAAAAAAAAAAAAAAAAAAAAAAAAAAAAAAAAAAAAAAAAAAAAAAAAAAAAAAAAAAAAAAAAAAAAAAAAAAAAAAAAAAAAAAAAAAAAAAAAAAAAAAAAAAAAAAAAAAAAAAAAAAAAAAAAAAAAAAAAAAAAAAAAAAAAAAAAAAAAAAAAAAAAAAAAAAAAAAAAAAAAAAAAAAAAAAAAAAAAAAAAAAAAAAAAAAAAAAAAAAAAAAAAAAAAAAAAAAAAAAAAAAAAAAAAAAAAAAAAAAAAAAAAAAAAAAAAAAAAAAAAAAAAAAAAAAAAAAAAAAAAAAAAAAAAAAAAAAAAAAAAAAAAAAAAAAAAAAAAAAAAAAAAAAAAAAAAAAAAAAAAAAAAAAAAAAAAAAAAAAAAAAAAAAAAAAAAAAPZYQF+eyB3V1ys6Zh6ZapDEHkD08C7HzYYFIOfTwULlfGu7BOgU1/yoaXiNL4zOsHZIKzjnrWX0lyl102svTf7yjGI=</c2pa:manifest></metadata><g transform="translate(103.5 12) scale(1.6) translate(-60 -50)"><g fill="none" stroke-linejoin="round" stroke-linecap="round"><path d="M100 70 L126 85 L126 100 M74 100 L74 85 L100 70 M100 85 L100 70" stroke="rgba(255,255,255,0.4)" stroke-width="0.9" stroke-dasharray="2 2.4"></path><path d="M74 103 L100 118 L126 103 M74 106 L100 121 L126 106 M74 109 L100 124 L126 109 M74 112 L100 127 L126 112" stroke="#5aa9ff" stroke-width="0.9"></path><path d="M74 100 L100 85 L126 100 L100 115 Z M74 100 L74 115 L100 130 L126 115 L126 100 M100 115 L100 130" stroke="#f4f4f2" stroke-width="1.3"></path><path d="M84 94.2 L104 105.8" stroke="#ff8a3d" stroke-width="2.4"></path><path d="M104 60 L104 85" stroke="#ff8a3d" stroke-width="1.1"></path><path d="M2 1 H20 V8 H16 L12 23 H10 L6 8 H2 Z" transform="translate(94.1 85.1) scale(0.9)" fill="#111418" stroke="#f4f4f2" stroke-width="1.5"></path></g></g><path d="M34.00 218.34L34.00 218.34Q32.16 218.34 30.19 217.86Q28.22 217.39 26.76 216.44L26.76 216.44Q26.08 215.99 25.84 215.42Q25.60 214.84 25.72 214.31Q25.84 213.78 26.23 213.41Q26.62 213.04 27.22 212.97Q27.81 212.90 28.52 213.27L28.52 213.27Q29.92 214.02 31.21 214.34Q32.50 214.67 33.86 214.67L33.86 214.67Q35.36 214.67 36.38 214.26Q37.40 213.85 37.93 213.04Q38.45 212.22 38.45 211.06L38.45 211.06Q38.45 209.36 37.31 208.53Q36.17 207.70 34.00 207.70L34.00 207.70L31.82 207.70Q30.87 207.70 30.38 207.22Q29.88 206.75 29.88 205.90Q29.88 205.05 30.38 204.57Q30.87 204.09 31.82 204.09L31.82 204.09L33.59 204.09Q34.88 204.09 35.80 203.67Q36.72 203.24 37.23 202.46Q37.74 201.68 37.74 200.56L37.74 200.56Q37.74 198.99 36.70 198.18Q35.66 197.36 33.69 197.36L33.69 197.36Q32.43 197.36 31.33 197.65Q30.22 197.94 28.90 198.72L28.90 198.72Q28.29 199.10 27.73 199.03Q27.16 198.96 26.79 198.59Q26.42 198.21 26.28 197.69Q26.14 197.16 26.35 196.60Q26.55 196.04 27.20 195.63L27.20 195.63Q28.66 194.68 30.43 194.18Q32.20 193.69 34.07 193.69L34.07 193.69Q36.55 193.69 38.32 194.45Q40.08 195.22 41.02 196.63Q41.95 198.04 41.95 200.05L41.95 200.05Q41.95 201.48 41.41 202.65Q40.87 203.82 39.88 204.64L39.88 204.64Q39.17 205.22 38.28 205.56L38.28 205.56Q40.19 206.07 41.31 207.39L41.31 207.39Q42.67 209.02 42.67 211.44L42.67 211.44Q42.67 213.55 41.61 215.11Q40.56 216.67 38.62 217.51Q36.68 218.34 34.00 218.34ZM59.60 218L53.00 218Q51.88 218 51.29 217.41Q50.69 216.81 50.69 215.69L50.69 215.69L50.69 196.34Q50.69 195.22 51.29 194.63Q51.88 194.03 53.00 194.03L53.00 194.03L59.60 194.03Q65.62 194.03 68.90 197.12Q72.18 200.22 72.18 206.00L72.18 206.00Q72.18 208.89 71.35 211.12Q70.51 213.34 68.90 214.87Q67.28 216.40 64.96 217.20Q62.63 218 59.60 218L59.60 218ZM55.04 197.63L55.04 214.40L59.33 214.40Q61.44 214.40 62.98 213.87Q64.53 213.34 65.57 212.31Q66.60 211.27 67.11 209.69Q67.62 208.11 67.62 206.00L67.62 206.00Q67.62 201.78 65.55 199.71Q63.48 197.63 59.33 197.63L59.33 197.63L55.04 197.63ZM94.79 218.27L94.79 218.27Q93.74 218.27 93.18 217.68Q92.61 217.08 92.61 216.03L92.61 216.03L92.61 196.24Q92.61 195.15 93.19 194.59Q93.77 194.03 94.82 194.03L94.82 194.03L103.02 194.03Q106.96 194.03 109.10 196.00Q111.25 197.97 111.25 201.51L111.25 201.51Q111.25 205.05 109.10 207.03Q106.96 209.02 103.02 209.02L103.02 209.02L96.97 209.02L96.97 216.03Q96.97 217.08 96.42 217.68Q95.88 218.27 94.79 218.27ZM96.97 197.46L96.97 205.59L102.34 205.59Q104.65 205.59 105.84 204.55Q107.03 203.52 107.03 201.51L107.03 201.51Q107.03 199.50 105.84 198.48Q104.65 197.46 102.34 197.46L102.34 197.46L96.97 197.46ZM120.36 218.27L120.36 218.27Q119.30 218.27 118.74 217.68Q118.18 217.08 118.18 216.03L118.18 216.03L118.18 196.24Q118.18 195.15 118.76 194.59Q119.34 194.03 120.39 194.03L120.39 194.03L128.59 194.03Q132.53 194.03 134.67 195.92Q136.81 197.80 136.81 201.20L136.81 201.20Q136.81 203.41 135.85 205.01Q134.88 206.61 133.04 207.46L133.04 207.46Q132.29 207.80 131.44 208.00L131.44 208.00Q131.99 208.17 132.46 208.48L132.46 208.48Q133.48 209.16 134.26 210.62L134.26 210.62L136.81 215.35Q137.22 216.06 137.19 216.74Q137.15 217.42 136.68 217.85Q136.20 218.27 135.28 218.27Q134.37 218.27 133.79 217.88Q133.21 217.49 132.77 216.67L132.77 216.67L129.33 210.35Q128.72 209.19 127.89 208.80Q127.06 208.41 125.76 208.41L125.76 208.41L122.53 208.41L122.53 216.03Q122.53 217.08 121.99 217.68Q121.45 218.27 120.36 218.27ZM122.53 197.46L122.53 205.18L127.84 205.18Q130.18 205.18 131.39 204.21Q132.60 203.24 132.60 201.31L132.60 201.31Q132.60 199.40 131.39 198.43Q130.18 197.46 127.84 197.46L127.84 197.46L122.53 197.46ZM147.08 218.27L147.08 218.27Q146.03 218.27 145.47 217.68Q144.91 217.08 144.91 216.03L144.91 216.03L144.91 196.00Q144.91 194.91 145.47 194.34Q146.03 193.76 147.08 193.76L147.08 193.76Q148.14 193.76 148.70 194.34Q149.26 194.91 149.26 196.00L149.26 196.00L149.26 216.03Q149.26 217.08 148.71 217.68Q148.17 218.27 147.08 218.27ZM159.93 218.27L159.93 218.27Q158.95 218.27 158.42 217.73Q157.89 217.18 157.89 216.16L157.89 216.16L157.89 195.93Q157.89 194.88 158.42 194.32Q158.95 193.76 159.80 193.76L159.80 193.76Q160.58 193.76 160.97 194.05Q161.36 194.34 161.91 195.02L161.91 195.02L174.04 210.76L174.04 195.83Q174.04 194.85 174.57 194.30Q175.10 193.76 176.08 193.76Q177.07 193.76 177.58 194.30Q178.09 194.85 178.09 195.83L178.09 195.83L178.09 216.23Q178.09 217.18 177.61 217.73Q177.14 218.27 176.32 218.27L176.32 218.27Q175.54 218.27 175.08 217.97Q174.62 217.66 174.08 216.98L174.08 216.98L161.94 201.20L161.94 216.16Q161.94 217.18 161.43 217.73Q160.92 218.27 159.93 218.27ZM194.68 218.27L194.68 218.27Q193.63 218.27 193.07 217.68Q192.51 217.08 192.51 216.03L192.51 216.03L192.51 197.67L185.88 197.67Q184.99 197.67 184.50 197.18Q184.01 196.68 184.01 195.83L184.01 195.83Q184.01 194.95 184.50 194.49Q184.99 194.03 185.88 194.03L185.88 194.03L203.49 194.03Q204.37 194.03 204.87 194.49Q205.36 194.95 205.36 195.83L205.36 195.83Q205.36 196.68 204.87 197.18Q204.37 197.67 203.49 197.67L203.49 197.67L196.86 197.67L196.86 216.03Q196.86 217.08 196.31 217.68Q195.77 218.27 194.68 218.27Z" fill="#f4f4f2"></path><path d="M240.65 218L229.26 218Q227.77 218 226.93 217.17Q226.10 216.33 226.10 214.84L226.10 214.84L226.10 197.16Q226.10 195.63 226.91 194.81Q227.73 194.00 229.23 194.00L229.23 194.00Q230.76 194.00 231.56 194.81Q232.35 195.63 232.35 197.16L232.35 197.16L232.35 212.80L240.65 212.80Q241.94 212.80 242.64 213.46Q243.34 214.12 243.34 215.38L243.34 215.38Q243.34 216.64 242.64 217.32Q241.94 218 240.65 218L240.65 218ZM252.52 218.31L252.52 218.31Q251.02 218.31 250.20 217.47Q249.39 216.64 249.39 215.11L249.39 215.11L249.39 196.92Q249.39 195.36 250.20 194.54Q251.02 193.72 252.52 193.72L252.52 193.72Q254.05 193.72 254.85 194.54Q255.64 195.36 255.64 196.92L255.64 196.92L255.64 215.11Q255.64 216.64 254.86 217.47Q254.08 218.31 252.52 218.31ZM273.87 218.31L273.87 218.31Q272.58 218.31 271.78 217.76Q270.98 217.22 270.44 216.03L270.44 216.03L262.21 197.87Q261.66 196.68 261.87 195.73Q262.07 194.78 262.82 194.25Q263.57 193.72 264.69 193.72L264.69 193.72Q266.08 193.72 266.78 194.34Q267.48 194.95 267.99 196.14L267.99 196.14L273.97 209.98L279.95 196.10Q280.47 194.91 281.18 194.32Q281.89 193.72 283.19 193.72L283.19 193.72Q284.24 193.72 284.95 194.25Q285.67 194.78 285.85 195.73Q286.04 196.68 285.50 197.87L285.50 197.87L277.24 216.03Q276.73 217.22 275.94 217.76Q275.16 218.31 273.87 218.31ZM306.81 218L295.29 218Q293.69 218 292.86 217.17Q292.02 216.33 292.02 214.77L292.02 214.77L292.02 197.26Q292.02 195.70 292.86 194.86Q293.69 194.03 295.29 194.03L295.29 194.03L306.81 194.03Q308.04 194.03 308.65 194.64Q309.26 195.25 309.26 196.41L309.26 196.41Q309.26 197.60 308.65 198.23Q308.04 198.86 306.81 198.86L306.81 198.86L298.01 198.86L298.01 203.41L306.07 203.41Q307.26 203.41 307.89 204.03Q308.51 204.64 308.51 205.83L308.51 205.83Q308.51 207.02 307.89 207.63Q307.26 208.24 306.07 208.24L306.07 208.24L298.01 208.24L298.01 213.17L306.81 213.17Q308.04 213.17 308.65 213.80Q309.26 214.43 309.26 215.59L309.26 215.59Q309.26 216.78 308.65 217.39Q308.04 218 306.81 218L306.81 218Z" fill="#ff8a3d"></path><line x1="24.274999999999977" y1="242" x2="163.5" y2="242" stroke="#ff8a3d" stroke-width="2.5" stroke-linecap="round"></line><line x1="171.5" y1="242" x2="310.725" y2="242" stroke="rgba(255,255,255,0.4)" stroke-width="1.2" stroke-dasharray="4 3"></line></svg>